/* XPM */
static char *_dd7388c354a4436b393fcff3d195dd8bYWNLOz2EMamYeyh[] = {
/* columns rows colors chars-per-pixel */
"64 64 230 2 ",
"   c None",
".  c #E3760C",
"X  c #E3770D",
"o  c #E3770E",
"O  c #E3770F",
"+  c #E3780F",
"@  c #E37810",
"#  c #E47810",
"$  c #E47910",
"%  c #E47911",
"&  c #E47912",
"*  c #E47A13",
"=  c #E47A14",
"-  c #E47B14",
";  c #E47B15",
":  c #E47B16",
">  c #E47C16",
",  c #E47D18",
"<  c #E47D19",
"1  c #E57D19",
"2  c #E57E19",
"3  c #E57E1A",
"4  c #E57E1B",
"5  c #E57F1B",
"6  c #E57F1C",
"7  c #E5811F",
"8  c #E58120",
"9  c #E58221",
"0  c #E68323",
"q  c #E68324",
"w  c #E68424",
"e  c #E68425",
"r  c #E68426",
"t  c #E68526",
"y  c #E68527",
"u  c #E68528",
"i  c #E68628",
"p  c #E68629",
"a  c #E6872A",
"s  c #E7882B",
"d  c #E7882C",
"f  c #E7892D",
"g  c #E7892E",
"h  c #E78A2F",
"j  c #E78A30",
"k  c #E78B31",
"l  c #E78B32",
"z  c #E78C33",
"x  c #E88C32",
"c  c #E88D34",
"v  c #E88D35",
"b  c #E88D36",
"n  c #E88E36",
"m  c #E88E37",
"M  c #E88F38",
"N  c #E88F39",
"B  c #E8903B",
"V  c #E9903B",
"C  c #E8913B",
"Z  c #E8913C",
"A  c #E8923D",
"S  c #E99340",
"D  c #E99441",
"F  c #E99442",
"G  c #E99543",
"H  c #E99544",
"J  c #E99645",
"K  c #EA9644",
"L  c #EA9645",
"P  c #EA9746",
"I  c #EA9747",
"U  c #EA9847",
"Y  c #EA9848",
"T  c #EA9849",
"R  c #EA994A",
"E  c #EA9A4B",
"W  c #EA9A4D",
"Q  c #EB9B4D",
"!  c #EA9B4E",
"~  c #EA9C4F",
"^  c #EB9C4F",
"/  c #EB9C50",
"(  c #EB9E52",
")  c #EC9F55",
"_  c #EC9F56",
"`  c #ECA056",
"'  c #ECA057",
"]  c #ECA158",
"[  c #ECA259",
"{  c #ECA25A",
"}  c #ECA25B",
"|  c #ECA35C",
" . c #ECA45D",
".. c #EDA45E",
"X. c #EDA55F",
"o. c #EDA560",
"O. c #EDA661",
"+. c #EDA762",
"@. c #EDA763",
"#. c #EDA764",
"$. c #EDA865",
"%. c #EDA866",
"&. c #EDA966",
"*. c #EDA967",
"=. c #EEAA68",
"-. c #EEAA69",
";. c #EEAB6B",
":. c #EEAC6A",
">. c #EEAC6C",
",. c #EEAC6D",
"<. c #EEAE6F",
"1. c #EEAE70",
"2. c #EFAE70",
"3. c #EFB072",
"4. c #EFB073",
"5. c #EFB174",
"6. c #EFB175",
"7. c #EFB378",
"8. c #F0B57A",
"9. c #F0B47B",
"0. c #F0B57C",
"q. c #F0B57D",
"w. c #F0B77F",
"e. c #F1B780",
"r. c #F1B983",
"t. c #F1BB85",
"y. c #F0BD8A",
"u. c #F1BD8A",
"i. c #F2BD8A",
"p. c #F2BE8C",
"a. c #F2BF8D",
"s. c #F2BF8E",
"d. c #F2C08F",
"f. c #F3C192",
"g. c #F3C292",
"h. c #F2C395",
"j. c #F3C395",
"k. c #F2C396",
"l. c #F3C496",
"z. c #F3C497",
"x. c #F3C598",
"c. c #F4C699",
"v. c #F4C69A",
"b. c #F3C89C",
"n. c #F4C89E",
"m. c #F4C99F",
"M. c #F4C9A0",
"N. c #F4CAA0",
"B. c #F4CBA3",
"V. c #F4CCA4",
"C. c #F4CCA5",
"Z. c #F5CCA5",
"A. c #F5CDA7",
"S. c #F5CEA8",
"D. c #F5CFA9",
"F. c #F5CFAA",
"G. c #F5CFAB",
"H. c #F6CFAA",
"J. c #F5D0AA",
"K. c #F5D0AC",
"L. c #F5D1AC",
"P. c #F5D1AD",
"I. c #F6D1AE",
"U. c #F6D2AF",
"Y. c #F5D3B1",
"T. c #F6D3B1",
"R. c #F6D4B2",
"E. c #F7D4B3",
"W. c #F6D5B4",
"Q. c #F6D5B5",
"!. c #F7D7B9",
"~. c #F7D8B9",
"^. c #F7D8BA",
"/. c #F7D9BB",
"(. c #F7D9BC",
"). c #F7DABE",
"_. c #F7DBBF",
"`. c #F8DBBF",
"'. c #F7DBC0",
"]. c #F7DDC2",
"[. c #F8DBC0",
"{. c #F8DDC3",
"}. c #F9DDC3",
"|. c #F8DEC4",
" X c #F8DEC5",
".X c #F9DFC7",
"XX c #F9E0CA",
"oX c #FAE5D1",
"OX c #FAE7D3",
"+X c #FAE7D5",
"@X c #FAE8D7",
"#X c #FBE9D7",
"$X c #FBEAD9",
"%X c #FAEADB",
"&X c #FAEBDB",
"*X c #FAECDC",
"=X c #FBECDC",
"-X c #FBEDDE",
";X c #FBEEE1",
":X c #FCEFE4",
">X c #FCF0E4",
",X c #FCF0E5",
"<X c #FCF1E6",
"1X c #FCF1E7",
"2X c #FCF2E7",
"3X c #FDF3E9",
"4X c #FDF4EB",
"5X c #FDF4EC",
"6X c #FDF5EE",
"7X c #FDF6EF",
"8X c #FDF6F0",
"9X c #FDF7F1",
"0X c #FEF7F1",
"qX c #FDF7F2",
"wX c #FDF8F2",
"eX c #FEF8F2",
"rX c #FEF9F4",
"tX c #FEF9F5",
"yX c #FEFBF8",
"uX c #FEFCFA",
"iX c #FFFCFA",
"pX c #FFFCFB",
"aX c #FFFDFC",
"sX c #FFFDFD",
"dX c #FEFEFC",
"fX c #FFFEFC",
"gX c #FFFEFD",
"hX c #FFFEFE",
"jX c #FFFFFE",
"kX c white",
/* pixels */
"                  . . . . . . . . . . . . . . . . . . . . . . . . . . . . . . . . . . . . . . . . . . . . . .                   ",
"            . . . . . . . . . . . . . . . . . . . . . . . . . . . . . . . . . . . . . . . . . . . . . . . . . . . .             ",
"          . . . . . . . . . . . . . . . . . . . . . . . . . . . . . . . . . . . . . . . . . . . . . . . . . . . . . .           ",
"        . . . . . . . . . . . . . . . . . . . . . . . . . . . . . . . . . . . . . . . . . . . . . . . . . . . . . . . .         ",
"      . . . . . . . . . . . . . . . . . . . . . . . . . . . . . . . . . . . . . . . . . . . . . . . . . . . . . . . . . .       ",
"    . . . . . . . . . . . . . . . . . . . . . . . . . . . . . . . . . . . . . . . . . . . . . . . . . . . . . . . . . . . .     ",
"  . . . . . . . . . . . . . . . . . . . . . . . . . . . . . . . . . . . . . . . . . . . . . . . . . . . . . . . . . . . . . .   ",
"  . . . . . . . . . . . . . . . . . . . . . . . . . . . . . . . . . . . . . . . . . . . . . . . . . . . . . . . . . . . . . .   ",
"  . . . . . . . y ;X=X<.g . . . . . . . . . . . . . . . . . . . . . . . . . . . . . . . . . . . . . . . . % ) g . . . . . . .   ",
". . . . . . . . Q kXkXkXkXL.X.6 . . . . . . . . . . . . . . . . . . . . . . . . . . . . . . . . . . . . . 9.kXkX. . . . . . . . ",
". . . . . . . . % 3.#XkXkXkXkXeXm.K ; . . . . . . . . . . . . . . . . . . . . . . . . . . . . . . . . . . tXkX3X. . . . . . . . ",
". . . . . . . . . . . D h.<XkXkXkXkX<Xr.B . . . . . . . . . . . . . . . . . . . . . . . . . . . . . . . D kXkXO.. . . . . . . . ",
". . . . . . . . . . . . . ; ` B.kXkXkXkXkX|.6.a . . . . . . . . . . . . . . . . . . . . . . . . . . . . F.kXkX, . . . . . . . . ",
". . . . . . . . . . . . . . . . y O.`.kXkXkXkXkXQ.{ 7 . . . . . . . . . . . . . . . . . . . . . . . . ; pXkXF.. . . . . . . . . ",
". . . . . . . . . . . . . . . . . . . g 0.oXkXkXkXkXpXz.T . . . . . . . . . . . . . . . . . . . . . . X.kXkXQ . . . . . . . . . ",
". . . . . . . . . . . . . . . . . . . . . . K a.4XkXkXkXkX+X0 . . . . . . . . . . . . . . . . . . . . !.kXqX@ . . . . . . . . . ",
". . . . . . . . . . . . . . . . . . . . . . . . , / F.kXkXkXZ . . . . . . . . . . . . . . . . . . . 0 kXkXz.. . . . . . . . . . ",
". . . . . . . . . . . . . . . . . . . . . . . . . . . 0 2.{ . . . . . . . . . . . . . . . . . . . . <.kXkXc . . . . . . . . . . ",
". . . . . . . . . . . . . . . . . . . . . . . . . . . . . . . . . . . . . . . . . . . . . . . . . . %XkX:X. . . . . . . . . . . ",
". . . . . . . . . . . . . . . . . . . . . . . . . . . . y D -.z.z.-.K y . . . . . . . . . . . . . g kXkX6.. . . . . . . . . . . ",
". . . . . . . . . . . . . . . . . . . . . . . . . . K V.kXkXkXkXkXkXkXkXF.U . . . . . . . . . . . a.kXkXa . . . . . . . . . . . ",
". . . . . . . . . . . . . . . . . . . . . . . . 0 L.kXkXkXkXkX4X7XkXkXkXkXkXY.y . . . . . . . . . 7XkX}.. . . . . . . . . . . . ",
". . . . . . . . . . . . . . . . . . . . . . . B qXkXkXkXV./ a , , a ~ m.kXkXkXpXB . . . . . . . K kXkXO.. . . . . . . . . . . . ",
". . . . . . . . . . . . . . . . . . . . . . z kXkXkXB.y . . . . . . . . 0 B.kXkXkXc . . . . . . B.kXkX, . . . . . . . . . . . . ",
". . . . . . . . . . . . . . . . . . . . . , kXkXkX-.. . . . . . . . . . . . #.kXkXkX, . . . . , kXkXL.. . . . . . . . . . . . . ",
". . . . . . . . . . . . . . . . . . . . . Y.kXkX<.. . . . . . . . . . . . . . %.kXkX).. . . . ` kXkXK . . . . . . . . . . . . . ",
". . . . . . . . . . . . . . . . . . . . c kXkXQ.. . . . . . . . . . . . . . . . F.kXkXZ . . . ].kXtX% . . . . . . . . . . . . . ",
". . . . . . . . . . . . . . . . . . . . F.kXkX7 . . . . . . . . . . . . . . . . , kXkXQ.. . y kXkXa.. . . . . . . . . . . . . . ",
". . . . . . . . . . . . . . . . . . . , kXkXL.. . . . . . . . . . . . . . . . . . V.kXkX6 . v.kXkXN . . . . . . . . . . . . . . ",
". . . . . . . . . . . . . . . . . . . c kXkXQ . . . . . . . . . . . . . . . . . . T kXkXD . { kX|.. . . . . . . . . . . . . . . ",
". . . . . . . . . . . . . . . . . . . %.kXkXl . . . . . . . . . . . . . . . . . . y kXkX:.. . a % . . . . . . . . . . . . . . . ",
". . . . . . . . . . . . . . . . . . . a.kXkXq . . . . . . . . . . . . . . . . . . 7 pXkXi.. . . . . . . . . . . . . . . . . . . ",
". . . . . . . . . . . . . . . . . . . a.kXkXq . . . . . . . . . . . . . . . . . . 0 kXkXi.. . . . . . . . . . . . . . . . . . . ",
". . . . . . . . . . . . . . . , c . . O.kXkXc . . . . . . . . . . . . . . . . . . y kXkX%.. . . . . . . . . . . . . . . . . . . ",
". . . . . . . . . . . . . . . oXkX<.. l kXkX` . . . . . . . . . . . . . . . . . . ~ kXkXS . . . . . . . . . . . . . . . . . . . ",
". . . . . . . . . . . . . . N kXkXh.. ; pXkX^.. . . . . . . . . . . . . . . . . . Q.kXkX, . . . . . . . . . . . . . . . . . . . ",
". . . . . . . . . . . . . . d.kXkXy . . b.kXkXa . . . . . . . . . . . . . . . . 0 kXkXV.. . . . . . . . . . . . . . . . . . . . ",
". . . . . . . . . . . . . % yXkX).. . . g kXkX}.. . . . . . . . . . . . . . . . ^.kXkXg . . . . . . . . . . . . . . . . . . . . ",
". . . . . . . . . . . . . T kXkX{ . . . . v.kXkXi.. . . . . . . . . . . . . . 9.kXkXF.. . . . . . . . . . . . . . . . . . . . . ",
". . . . . . . . . . . . . L.kXkX, . . . . % qXkXkXe.. . . . . . . . . . . . 6.kXkXqX> . . . . . . . . . . . . . . . . . . . . . ",
". . . . . . . . . . . . , kXkXV.. . . . . . y kXkXkX[.c . . . . . . . . z ^.kXkXkXa . . . . . . . . . . . . . . . . . . . . . . ",
". . . . . . . . . . . . O.kXkXK . . . . . . . a =XkXkXkX^.%.N g g N O.E.kXkXkX<Xs . . . . . . . . . . . . . . . . . . . . . . . ",
". . . . . . . . . . . . |.kXqX. . . . . . . . . > g.kXkXkXkXkXkXkXkXkXkXkXkXx., . . . . . . . . . . . . . . . . . . . . . . . . ",
". . . . . . . . . . . y kXkXi.. . . . . . . . . . . x a.<XkXkXkXkXkXkX<Xg.c . . . . . . . . . . . . . . . . . . . . . . . . . . ",
". . . . . . . . . . . 3.kXkXl . . . . . . . . . . . . . ; l | 0.0.X.l ; . . . . . . . . . . . . . . . . . . . . . . . . . . . . ",
". . . . . . . . . . . <XkX=X. . . . . . . . . . . . . . . . . . . . . . . . . . . . . . . . . . . . . . . . . . . . . . . . . . ",
". . . . . . . . . . c kXkX2.. . . . . . . . . . . . . . . . . . . . 2.i.c . . . . . . . . . . . . . . . . . . . . . . . . . . . ",
". . . . . . . . . . h.kXkXy . . . . . . . . . . . . . . . . . . . g kXkXkX}.-.a . . . . . . . . . . . . . . . . . . . . . . . . ",
". . . . . . . . . % qXkX).. . . . . . . . . . . . . . . . . . . . , E.kXkXkXkXkXF.{ , . . . . . . . . . . . . . . . . . . . . . ",
". . . . . . . . . Q kXkX{ . . . . . . . . . . . . . . . . . . . . . . c 0.=XkXkXkXkXeXz.D % . . . . . . . . . . . . . . . . . . ",
". . . . . . . . . L.kXkX; . . . . . . . . . . . . . . . . . . . . . . . . @ K v.7XkXkXkXkX%X0.c . . . . . . . . . . . . . . . . ",
". . . . . . . . , kXkXV.. . . . . . . . . . . . . . . . . . . . . . . . . . . . , { J.kXkXkXkXkX'.<.y . . . . . . . . . . . . . ",
". . . . . . . . X.kXkXD . . . . . . . . . . . . . . . . . . . . . . . . . . . . . . . a %.XXkXkXkXkXkXL.) 6 . . . . . . . . . . ",
". . . . . . . . 7XkXyX+ . . . . . . . . . . . . . . . . . . . . . . . . . . . . . . . . . . N t.#XkXkXkXkXeXd., . . . . . . . . ",
". . . . . . . . <XkX7.. . . . . . . . . . . . . . . . . . . . . . . . . . . . . . . . . . . . . + T z.tXkXkXkXO.. . . . . . . . ",
"  . . . . . . . , K . . . . . . . . . . . . . . . . . . . . . . . . . . . . . . . . . . . . . . . . . 6 { %X<Xy . . . . . . .   ",
"  . . . . . . . . . . . . . . . . . . . . . . . . . . . . . . . . . . . . . . . . . . . . . . . . . . . . . . . . . . . . . .   ",
"  . . . . . . . . . . . . . . . . . . . . . . . . . . . . . . . . . . . . . . . . . . . . . . . . . . . . . . . . . . . . . .   ",
"    . . . . . . . . . . . . . . . . . . . . . . . . . . . . . . . . . . . . . . . . . . . . . . . . . . . . . . . . . . . .     ",
"      . . . . . . . . . . . . . . . . . . . . . . . . . . . . . . . . . . . . . . . . . . . . . . . . . . . . . . . . . .       ",
"        . . . . . . . . . . . . . . . . . . . . . . . . . . . . . . . . . . . . . . . . . . . . . . . . . . . . . . . .         ",
"          . . . . . . . . . . . . . . . . . . . . . . . . . . . . . . . . . . . . . . . . . . . . . . . . . . . . . .           ",
"            . . . . . . . . . . . . . . . . . . . . . . . . . . . . . . . . . . . . . . . . . . . . . . . . . . . .             ",
"                  . . . . . . . . . . . . . . . . . . . . . . . . . . . . . . . . . . . . . . . . . . . . . .                   "
};
